
<svg xmlns="http://www.w3.org/2000/svg" style="display: none;">

    <symbol id="icon-logo">
        <svg xmlns="http://www.w3.org/2000/svg" viewBox="0 0 113.997 113.997" style="enable-background:new 0 0 113.997 113.997" xml:space="preserve"><path style="fill-rule:evenodd;clip-rule:evenodd;fill:lightcyan" d="M48.08 0c11.841 31.516 18.376 33.294 42.916 10.388-14.315 30.363-10.625 36.043 23 37.692-31.515 11.842-33.293 18.376-10.388 42.916-30.364-14.315-36.043-10.625-37.691 23.001C54.075 82.482 47.541 80.703 23 103.609 37.316 73.246 33.626 67.566 0 65.917 31.515 54.075 33.293 47.54 10.388 23.001 40.751 37.315 46.43 33.626 48.08 0z"/><circle style="fill-rule:evenodd;clip-rule:evenodd;fill:#ffa07a" cx="56.998" cy="56.998" r="25.318"/></svg>
    </symbol>

    <symbol id="icon-loupe">
        <path fill-rule="evenodd" clip-rule="evenodd" d="M24.027 46.333c-4.32 16.125-2.103 32.968 6.244 47.426 11.132 19.281 31.892 31.259 54.178 31.259a62.367 62.367 0 0 0 24.474-5.03l32.507 56.303 12.99-7.5-32.508-56.305c11.174-8.353 19.19-20.117 22.856-33.802 4.32-16.125 2.103-32.968-6.244-47.426C127.393 11.978 106.633 0 84.347 0c-10.912 0-21.7 2.899-31.199 8.383-14.458 8.347-24.799 21.825-29.121 37.95zM84.347 15c16.944 0 32.727 9.104 41.188 23.759 6.344 10.988 8.029 23.789 4.745 36.044-3.283 12.255-11.143 22.499-22.131 28.842-7.222 4.169-15.416 6.373-23.699 6.373-16.944 0-32.727-9.104-41.188-23.759-6.344-10.988-8.029-23.788-4.745-36.043C41.801 37.96 49.66 27.717 60.648 21.373 67.87 17.204 76.064 15 84.347 15z" fill=""/>
    </symbol>

    <symbol id="icon-arrow">
        <svg xmlns="http://www.w3.org/2000/svg" viewBox="0 0 237.64 237.64" style="enable-background:new 0 0 237.64 237.64" xml:space="preserve"><path style="fill:salmon" d="M7.954 226.53c-2.23 4.623-2.295 8.072-.609 9.915 3.911 4.275 15.926-3.905 23.323-9.051l58.416-40.662c7.397-5.145 20.402-11.835 29.414-11.993a64.14 64.14 0 0 1 2.703.011c9.007.218 21.958 7.016 29.3 12.238l56.403 40.151c7.343 5.221 19.303 13.473 23.301 9.219 1.74-1.849 1.751-5.33-.381-9.997L129.648 7.047c-4.264-9.333-11.335-9.404-15.79-.163L7.954 226.53z"/></svg>
    </symbol>

    <symbol id="icon-loader">
        <svg xmlns="http://www.w3.org/2000/svg" viewBox="0 0 512 512" style="enable-background:new 0 0 512 512" xml:space="preserve"><path style="fill:#ffa07a" d="M256 402.469c-37.529 0-75.046-14.28-103.618-42.851-28.528-28.528-43.758-66.461-42.885-106.809.822-37.928 16.052-73.595 42.885-100.428 57.134-57.134 150.099-57.135 207.235 0 5.377 5.377 5.377 14.095 0 19.474-5.377 5.377-14.095 5.377-19.474 0-46.396-46.398-121.893-46.398-168.291 0-21.791 21.79-34.16 50.752-34.826 81.55-.709 32.768 11.658 63.572 34.826 86.74 46.398 46.398 121.894 46.398 168.291 0 22.478-22.477 34.855-52.361 34.854-84.147 0-7.605 6.164-13.769 13.769-13.769s13.769 6.164 13.769 13.769c.001 39.143-15.241 75.944-42.92 103.622-28.561 28.561-66.094 42.849-103.615 42.849z"/><circle style="fill:#ffa07a" cx="255.996" cy="255.996" r="84.033"/><path style="fill:cyan" d="M256 353.798c-26.123 0-50.681-10.173-69.154-28.645-18.471-18.471-28.644-43.03-28.644-69.153s10.173-50.681 28.645-69.154c18.471-18.471 43.03-28.644 69.153-28.644s50.681 10.173 69.154 28.645c18.471 18.471 28.644 43.03 28.644 69.153s-10.173 50.681-28.645 69.154c-18.472 18.471-43.03 28.644-69.153 28.644zm0-168.058c-18.766 0-36.41 7.309-49.68 20.579-13.271 13.271-20.58 30.915-20.58 49.681s7.309 36.41 20.579 49.68c13.271 13.271 30.914 20.579 49.68 20.579s36.41-7.309 49.68-20.579S326.26 274.766 326.26 256s-7.309-36.41-20.579-49.68c-13.271-13.271-30.915-20.58-49.681-20.58zM256 86.299c-7.605 0-13.769-6.164-13.769-13.769V13.769C242.231 6.164 248.395 0 256 0s13.769 6.164 13.769 13.769V72.53c0 7.605-6.164 13.769-13.769 13.769zM256 512c-7.605 0-13.769-6.164-13.769-13.769V439.47c0-7.605 6.164-13.769 13.769-13.769s13.769 6.164 13.769 13.769v58.761c0 7.605-6.164 13.769-13.769 13.769zM385.731 140.038a13.728 13.728 0 0 1-9.736-4.033c-5.377-5.377-5.377-14.095 0-19.474l12.544-12.544c5.377-5.375 14.095-5.375 19.474 0 5.377 5.377 5.377 14.095 0 19.474l-12.544 12.544a13.737 13.737 0 0 1-9.738 4.033zM113.723 412.044a13.727 13.727 0 0 1-9.736-4.033c-5.377-5.377-5.377-14.095 0-19.474l12.544-12.544c5.377-5.375 14.095-5.375 19.474 0 5.377 5.377 5.377 14.095 0 19.474l-12.544 12.544a13.729 13.729 0 0 1-9.738 4.033zM126.269 140.038a13.727 13.727 0 0 1-9.736-4.033l-12.544-12.544c-5.377-5.377-5.377-14.095 0-19.474 5.377-5.375 14.095-5.375 19.474 0l12.544 12.544c5.377 5.377 5.377 14.095 0 19.474a13.742 13.742 0 0 1-9.738 4.033zM398.275 412.044a13.728 13.728 0 0 1-9.736-4.033l-12.544-12.544c-5.377-5.377-5.377-14.095 0-19.474 5.377-5.375 14.095-5.375 19.474 0l12.544 12.544c5.377 5.377 5.377 14.095 0 19.474a13.727 13.727 0 0 1-9.738 4.033zM498.231 269.769H439.47c-7.605 0-13.769-6.164-13.769-13.769s6.164-13.769 13.769-13.769h58.761c7.605 0 13.769 6.164 13.769 13.769s-6.164 13.769-13.769 13.769zM72.53 269.769H13.769C6.164 269.769 0 263.605 0 256s6.164-13.769 13.769-13.769H72.53c7.605 0 13.769 6.164 13.769 13.769s-6.164 13.769-13.769 13.769z"/></svg>
    </symbol>

    <symbol id="icon-1">
        <path fill="#FFA500" d="M4.37 14.62c0-.24.08-.45.25-.62.17-.16.38-.24.6-.24h2.04c.23 0 .42.08.58.25.15.17.23.37.23.61s-.07.44-.22.61c-.15.17-.35.25-.58.25H5.23c-.23 0-.43-.08-.6-.25a.832.832 0 0 1-.26-.61zm2.86 6.93c0-.23.08-.43.23-.61l1.47-1.43c.15-.16.35-.23.59-.23s.44.08.6.23.24.34.24.57c0 .24-.08.46-.24.64L8.7 22.14c-.41.32-.82.32-1.23 0a.807.807 0 0 1-.24-.59zm0-13.84c0-.23.08-.43.23-.61.2-.17.41-.25.64-.25.22 0 .42.08.59.24l1.43 1.47c.16.15.24.35.24.59s-.08.44-.24.6-.36.24-.6.24-.44-.08-.59-.24L7.47 8.32a.837.837 0 0 1-.24-.61zm2.55 6.91c0-.93.23-1.8.7-2.6s1.1-1.44 1.91-1.91 1.67-.7 2.6-.7c.7 0 1.37.14 2.02.42.64.28 1.2.65 1.66 1.12.47.47.84 1.02 1.11 1.66.27.64.41 1.32.41 2.02 0 .94-.23 1.81-.7 2.61-.47.8-1.1 1.43-1.9 1.9-.8.47-1.67.7-2.61.7s-1.81-.23-2.61-.7c-.8-.47-1.43-1.1-1.9-1.9-.45-.81-.69-1.68-.69-2.62zm1.7 0c0 .98.34 1.81 1.03 2.5.68.69 1.51 1.04 2.49 1.04s1.81-.35 2.5-1.04 1.04-1.52 1.04-2.5c0-.96-.35-1.78-1.04-2.47-.69-.68-1.52-1.02-2.5-1.02-.97 0-1.8.34-2.48 1.02-.7.69-1.04 1.51-1.04 2.47zm2.66 7.78c0-.24.08-.44.25-.6s.37-.24.6-.24c.24 0 .45.08.61.24s.24.36.24.6v1.99c0 .24-.08.45-.25.62-.17.17-.37.25-.6.25s-.44-.08-.6-.25a.845.845 0 0 1-.25-.62V22.4zm0-15.5V4.86c0-.23.08-.43.25-.6.17-.17.37-.26.61-.26s.43.08.6.25c.17.17.25.37.25.6V6.9c0 .23-.08.42-.25.58s-.37.23-.6.23-.44-.08-.6-.23-.26-.35-.26-.58zm5.52 13.18c0-.23.08-.42.23-.56.15-.16.34-.23.56-.23.24 0 .44.08.6.23l1.46 1.43c.16.17.24.38.24.61 0 .23-.08.43-.24.59-.4.31-.8.31-1.2 0l-1.42-1.42a.974.974 0 0 1-.23-.65zm0-10.92c0-.25.08-.45.23-.59l1.42-1.47a.84.84 0 0 1 .59-.24c.24 0 .44.08.6.25.17.17.25.37.25.6 0 .25-.08.46-.24.62l-1.46 1.43c-.18.16-.38.24-.6.24-.23 0-.41-.08-.56-.24s-.23-.36-.23-.6zm2.26 5.46c0-.24.08-.44.24-.62.16-.16.35-.24.57-.24h2.02c.23 0 .43.09.6.26.17.17.26.37.26.6s-.09.43-.26.6c-.17.17-.37.25-.6.25h-2.02c-.23 0-.43-.08-.58-.25s-.23-.36-.23-.6z" />
    </symbol>

    <symbol id="icon-2">
        <path fill="#696969"  d="M1.56 16.9c0 .9.22 1.73.66 2.49s1.04 1.36 1.8 1.8c.76.44 1.58.66 2.47.66h10.83c.89 0 1.72-.22 2.48-.66.76-.44 1.37-1.04 1.81-1.8.44-.76.67-1.59.67-2.49 0-.66-.14-1.33-.42-2 .76-.92 1.14-2.03 1.14-3.3 0-.71-.14-1.39-.41-2.04-.27-.65-.65-1.2-1.12-1.67-.47-.47-1.02-.85-1.67-1.12-.65-.28-1.33-.41-2.04-.41-1.48 0-2.77.58-3.88 1.74-.77-.44-1.67-.66-2.7-.66-1.41 0-2.65.44-3.73 1.31a5.8 5.8 0 0 0-2.08 3.35c-1.12.26-2.03.83-2.74 1.73s-1.07 1.92-1.07 3.07zm1.71 0c0-.84.28-1.56.84-2.17.56-.61 1.26-.96 2.1-1.06l.5-.03c.12 0 .19-.06.19-.18l.07-.54c.14-1.08.61-1.99 1.41-2.71.8-.73 1.74-1.09 2.81-1.09 1.1 0 2.06.37 2.87 1.1a3.99 3.99 0 0 1 1.37 2.71l.07.58c.02.11.09.17.21.17h1.61c.88 0 1.64.32 2.28.96.64.64.96 1.39.96 2.27 0 .91-.32 1.68-.95 2.32-.63.64-1.4.96-2.28.96H6.49c-.88 0-1.63-.32-2.27-.97-.63-.65-.95-1.42-.95-2.32zm6.7-12.27c0 .24.08.45.24.63l.66.64c.25.19.46.27.64.25.21 0 .39-.09.55-.26s.24-.38.24-.62-.09-.44-.26-.59l-.59-.66a.888.888 0 0 0-.61-.24c-.24 0-.45.08-.62.25-.17.16-.25.36-.25.6zm5.34 4.43c.69-.67 1.51-1 2.45-1 .99 0 1.83.34 2.52 1.03s1.04 1.52 1.04 2.51c0 .62-.17 1.24-.51 1.84-.97-.96-2.13-1.44-3.49-1.44H17c-.25-1.09-.81-2.07-1.69-2.94zm1.63-5.28c0 .26.08.46.23.62s.35.23.59.23c.26 0 .46-.08.62-.23.16-.16.23-.36.23-.62V1.73c0-.24-.08-.43-.24-.59s-.36-.23-.61-.23c-.24 0-.43.08-.59.23s-.23.35-.23.59v2.05zm5.52 2.29c0 .26.07.46.22.62.21.16.42.24.62.24.18 0 .38-.08.59-.24l1.43-1.43c.16-.18.24-.39.24-.64 0-.24-.08-.44-.24-.6a.807.807 0 0 0-.59-.24c-.24 0-.43.08-.58.24l-1.47 1.43c-.15.19-.22.39-.22.62zm.79 11.84c0 .24.08.45.25.63l.65.63c.15.16.34.24.58.24s.44-.08.6-.25a.86.86 0 0 0 .24-.62c0-.22-.08-.42-.24-.58l-.65-.65a.779.779 0 0 0-.57-.24c-.24 0-.44.08-.6.24-.17.16-.26.36-.26.6zm1.47-6.31c0 .23.09.42.26.58.16.16.37.24.61.24h2.04c.23 0 .42-.08.58-.23s.23-.35.23-.59-.08-.44-.23-.6-.35-.25-.58-.25h-2.04c-.24 0-.44.08-.61.25a.79.79 0 0 0-.26.6z"/>
    </symbol>

    <symbol id="icon-3">
        <path fill="lightblue" d="M.32 21.06c0 .23.08.43.25.59.17.16.38.24.63.24h18.71c.24 0 .44-.08.61-.24.17-.16.25-.35.25-.59s-.08-.44-.25-.6a.822.822 0 0 0-.61-.25H1.2c-.25 0-.46.08-.63.25s-.25.36-.25.6zm2.62-3.14c0 .23.08.43.25.58a.8.8 0 0 0 .6.27h18.72c.23 0 .43-.08.59-.25.16-.17.24-.37.24-.6a.84.84 0 0 0-.23-.59.791.791 0 0 0-.59-.24H3.8c-.24 0-.44.08-.6.24-.17.17-.26.36-.26.59zm.13-2.4c0 .09.05.13.16.13h1.43c.07 0 .14-.05.21-.16.24-.52.59-.94 1.06-1.27.47-.33.99-.52 1.56-.56l.54-.07c.11 0 .17-.06.17-.18l.07-.51c.11-1.08.56-1.98 1.37-2.71.81-.72 1.76-1.09 2.86-1.09 1.08 0 2.03.36 2.84 1.08.81.72 1.27 1.61 1.38 2.68l.07.58c0 .11.06.17.19.17h1.61c.64 0 1.23.17 1.76.52.53.34.92.8 1.18 1.37.07.11.13.16.2.16h1.44c.13 0 .18-.07.13-.23l-.2-.55c.76-.94 1.13-2.04 1.13-3.31 0-.71-.14-1.38-.41-2.03s-.64-1.2-1.11-1.67c-.46-.47-1.02-.84-1.67-1.12s-1.32-.4-2.04-.4c-1.54 0-2.82.56-3.82 1.68-.85-.42-1.74-.63-2.68-.63-1.4 0-2.65.44-3.74 1.32s-1.79 2-2.1 3.37c-1.78.47-2.98 1.58-3.58 3.35-.01.01-.01.04-.01.08zm1.62 8.61c0 .24.09.44.27.6.16.17.35.26.59.26h18.74c.23 0 .43-.08.6-.25.17-.17.25-.37.25-.61 0-.23-.08-.42-.25-.58a.882.882 0 0 0-.6-.23H5.55a.89.89 0 0 0-.61.23c-.17.16-.25.35-.25.58zm6.57-19.47c0 .24.08.43.23.59l.65.64c.17.18.36.27.58.27.22 0 .42-.08.6-.25.17-.17.26-.37.26-.61s-.08-.45-.25-.63l-.64-.61a.794.794 0 0 0-.6-.26c-.24 0-.44.08-.6.25-.15.16-.23.37-.23.61zm5.32 4.38c.67-.68 1.48-1.01 2.43-1.01.98 0 1.82.35 2.51 1.04.69.69 1.04 1.53 1.04 2.5 0 .65-.16 1.25-.49 1.8-.95-.95-2.11-1.42-3.47-1.42h-.34c-.29-1.18-.85-2.15-1.68-2.91zm1.6-5.23c0 .23.08.43.24.59.16.16.35.24.59.24.25 0 .46-.08.63-.24.17-.16.25-.35.25-.59V1.76c0-.23-.09-.43-.26-.6A.884.884 0 0 0 19 .91c-.23 0-.43.08-.59.25-.16.17-.24.37-.24.6v2.05zm5.49 2.27c0 .22.08.43.24.6.37.36.78.36 1.23 0l1.43-1.43c.16-.18.24-.39.24-.64 0-.23-.08-.43-.24-.59a.807.807 0 0 0-.59-.24c-.24 0-.44.08-.6.24l-1.46 1.47c-.17.18-.25.38-.25.59zm.81 11.8c0 .24.09.44.26.6l.64.65c.16.16.36.24.58.24.21 0 .41-.08.61-.24.16-.17.24-.39.24-.64 0-.22-.08-.41-.24-.56l-.65-.66a.882.882 0 0 0-.6-.24c-.24 0-.44.08-.6.25-.16.16-.24.36-.24.6zm1.48-6.31c0 .24.09.44.26.6.15.17.35.25.59.25h2.05c.23 0 .43-.08.59-.25.16-.17.24-.37.24-.6 0-.24-.08-.44-.24-.6a.791.791 0 0 0-.59-.24h-2.05c-.24 0-.44.08-.6.25-.17.16-.25.36-.25.59z"/>
    </symbol>

    <symbol id="icon-4">
        <path fill="lightblue" d="M1.58 16.89c0 .87.21 1.68.64 2.42.42.75 1 1.35 1.73 1.8.73.45 1.53.69 2.4.73.12 0 .18-.06.18-.17v-1.33c0-.12-.06-.19-.18-.19-.85-.04-1.58-.38-2.18-1.02s-.9-1.38-.9-2.25c0-.82.28-1.54.84-2.15s1.26-.96 2.09-1.06l.52-.03c.12 0 .19-.06.19-.18l.08-.54c.11-1.08.56-1.98 1.36-2.71s1.75-1.09 2.85-1.09c1.07 0 2.02.36 2.84 1.09a4.11 4.11 0 0 1 1.4 2.7l.07.58c0 .11.06.17.17.17h1.62c.88 0 1.65.32 2.29.96.65.64.97 1.39.97 2.26 0 .86-.3 1.61-.9 2.25-.6.63-1.33.97-2.18 1.02-.12 0-.18.06-.18.19v1.33c0 .11.06.17.18.17.87-.02 1.67-.26 2.4-.72s1.31-1.05 1.73-1.8.63-1.56.63-2.43c0-.74-.14-1.4-.41-2 .78-.95 1.16-2.05 1.16-3.3 0-.94-.23-1.82-.7-2.62s-1.1-1.44-1.9-1.9c-.8-.47-1.67-.7-2.61-.7-1.55 0-2.84.58-3.87 1.73-.82-.44-1.72-.66-2.69-.66-1.41 0-2.65.44-3.74 1.31s-1.78 1.99-2.09 3.34c-1.1.26-2.01.84-2.72 1.73-.74.91-1.09 1.93-1.09 3.07zm5.9.88c0 .38.14.71.42.98s.62.4 1.01.4c.4 0 .73-.13 1-.4s.4-.59.4-.98c0-.24-.12-.58-.35-1-.23-.43-.45-.76-.65-.99-.21-.22-.35-.37-.4-.42l-.36.4c-.27.29-.52.63-.74 1.03s-.33.73-.33.98zM9.97 4.66c0 .26.08.46.24.61l.65.66c.42.31.82.31 1.21 0a.98.98 0 0 0 .24-.64c0-.23-.08-.43-.24-.59l-.64-.65a.89.89 0 0 0-.61-.25c-.24 0-.45.08-.61.25-.16.17-.24.37-.24.61zm.48 17.07c0 .66.23 1.21.68 1.65s1 .67 1.65.67c.65 0 1.2-.23 1.66-.68.46-.46.68-1 .68-1.64 0-.54-.27-1.19-.81-1.97-.46-.61-.89-1.1-1.28-1.49-.08-.06-.17-.13-.26-.23l-.23.23c-.36.32-.78.82-1.27 1.47-.54.76-.82 1.42-.82 1.99zm1.48-6.62c0 .25.1.47.29.65.19.18.42.27.69.27.26 0 .48-.09.66-.27.18-.18.27-.4.27-.65 0-.41-.31-.95-.93-1.6l-.24.25c-.18.2-.35.43-.5.7-.17.27-.24.48-.24.65zm3.37-6.05c.66-.66 1.48-.99 2.47-.99.98 0 1.8.34 2.49 1.03.68.69 1.03 1.52 1.03 2.5 0 .59-.17 1.2-.52 1.84-.97-.96-2.13-1.44-3.47-1.44h-.33a6.086 6.086 0 0 0-1.67-2.94zm1.6-5.26c0 .24.09.44.26.61.17.17.37.25.6.25s.43-.08.58-.25c.16-.17.23-.37.23-.61V1.76c0-.24-.08-.43-.23-.59S18 .94 17.77.94s-.44.08-.61.23-.26.35-.26.59V3.8zm5.52 2.31c0 .24.08.44.25.59.17.16.36.24.56.24.17 0 .38-.08.61-.24l1.43-1.43c.18-.18.27-.39.27-.62 0-.24-.08-.45-.25-.61a.853.853 0 0 0-.61-.24c-.22 0-.41.08-.58.25l-1.43 1.43c-.17.17-.25.38-.25.63zm.8 11.78c0 .25.08.46.23.64l.65.58c.14.18.34.27.59.27.24 0 .44-.09.58-.27.18-.16.27-.36.27-.58 0-.22-.09-.41-.27-.58l-.61-.65a.888.888 0 0 0-.61-.24c-.24 0-.44.08-.6.24s-.23.36-.23.59zm1.45-6.29c0 .22.08.42.25.58.17.16.38.24.63.24h2.02c.24 0 .44-.08.6-.24.17-.16.25-.35.25-.59s-.08-.44-.25-.6-.37-.25-.6-.25h-2.02c-.24 0-.44.08-.62.25s-.26.38-.26.61z"/>
    </symbol>

    <symbol id="icon-5">
        <path fill="lightblue" d="M1.58 16.93c0 .86.21 1.67.64 2.41.42.74 1 1.34 1.74 1.79.73.45 1.54.69 2.4.71.11 0 .17-.06.17-.17v-1.33c0-.12-.06-.19-.17-.19-.85-.04-1.58-.38-2.18-1.02s-.9-1.37-.9-2.21c0-.82.28-1.54.85-2.16.57-.61 1.26-.97 2.1-1.07l.53-.06c.12 0 .18-.06.18-.19l.08-.51c.11-1.09.56-2 1.36-2.73s1.75-1.09 2.85-1.09c1.09 0 2.04.36 2.85 1.09.82.73 1.28 1.63 1.38 2.7l.07.58c0 .11.06.17.17.17h1.61c.9 0 1.67.32 2.31.96.64.64.96 1.4.96 2.29 0 .84-.3 1.57-.9 2.21-.6.63-1.33.97-2.17 1.02-.12 0-.19.06-.19.19v1.33c0 .11.06.17.19.17 1.33-.04 2.45-.54 3.38-1.5.93-.96 1.39-2.09 1.39-3.41 0-.76-.14-1.43-.43-2.03.75-.93 1.15-2.03 1.15-3.28 0-.94-.23-1.81-.7-2.61-.47-.8-1.11-1.44-1.91-1.91s-1.68-.7-2.62-.7c-1.54 0-2.83.58-3.87 1.73-.81-.44-1.71-.66-2.69-.66-1.41 0-2.65.44-3.74 1.31s-1.78 1.99-2.09 3.34c-1.12.28-2.03.86-2.74 1.75-.71.9-1.06 1.92-1.06 3.08zm6.34 4.05c0 .24.08.44.24.61.16.17.35.25.59.25.23 0 .43-.08.59-.25.16-.17.24-.37.24-.61 0-.23-.08-.42-.24-.58s-.35-.24-.59-.24c-.23 0-.43.08-.59.24s-.24.36-.24.58zm0 3.63c0 .21.08.4.24.57.18.16.37.24.58.24.24 0 .43-.08.59-.23.16-.16.23-.35.23-.58 0-.24-.08-.43-.24-.59a.784.784 0 0 0-.59-.23.84.84 0 0 0-.59.23c-.14.15-.22.35-.22.59zM9.97 4.68c0 .24.08.44.24.59l.66.66c.16.16.34.25.53.25.21.03.41-.04.61-.22s.3-.39.3-.63-.08-.46-.24-.64l-.64-.61a.73.73 0 0 0-.58-.25c-.25 0-.46.08-.63.25-.17.16-.25.36-.25.6zM11.1 22.9c0 .22.08.42.24.6.16.16.36.24.58.24.24 0 .44-.08.6-.24s.25-.36.25-.6c0-.23-.08-.43-.25-.6s-.37-.25-.6-.25c-.23 0-.42.08-.58.25s-.24.37-.24.6zm0-3.6c0 .23.08.42.24.58s.36.24.58.24c.24 0 .44-.08.6-.24.17-.16.25-.35.25-.59 0-.23-.08-.43-.25-.59s-.37-.24-.6-.24c-.23 0-.42.08-.58.24s-.24.37-.24.6zm0 7.26c0 .22.08.41.24.57.17.17.36.25.58.25.24 0 .44-.08.6-.23.17-.16.25-.35.25-.59s-.08-.44-.25-.6a.816.816 0 0 0-.6-.25c-.22 0-.41.08-.58.25-.16.17-.24.37-.24.6zm3.22-5.58c0 .24.08.44.24.61.16.17.36.25.59.25s.43-.08.59-.25c.16-.17.24-.37.24-.61 0-.23-.08-.42-.24-.58s-.35-.24-.59-.24-.43.08-.59.24-.24.36-.24.58zm0 3.63c0 .21.08.4.23.57.18.16.38.24.6.24.24 0 .43-.08.59-.23.16-.16.23-.35.23-.58 0-.24-.08-.43-.24-.59a.784.784 0 0 0-.59-.23c-.24 0-.44.08-.6.24-.14.15-.22.35-.22.58zm.98-15.55c.69-.66 1.51-.99 2.47-.99.97 0 1.8.35 2.48 1.04.69.69 1.03 1.53 1.03 2.49 0 .62-.17 1.24-.51 1.84-.95-.96-2.11-1.44-3.47-1.44h-.32c-.3-1.17-.86-2.15-1.68-2.94zm1.6-5.22c0 .23.08.43.25.58s.37.23.61.23.43-.08.59-.23c.16-.16.23-.35.23-.58V1.8c0-.24-.08-.44-.24-.61S18 .94 17.77.94s-.43.09-.6.26c-.17.17-.26.37-.26.6v2.04zm5.52 2.27c0 .23.08.43.25.59.15.16.34.24.56.26s.43-.07.62-.26l1.43-1.43c.18-.18.26-.38.26-.61 0-.24-.09-.44-.26-.61a.816.816 0 0 0-.6-.25c-.22 0-.41.08-.58.25l-1.43 1.46c-.17.16-.25.36-.25.6zm.8 11.8c0 .25.08.46.24.62l.64.63c.24.16.46.24.64.24.21 0 .39-.09.56-.26.17-.17.25-.38.25-.61 0-.23-.09-.42-.26-.58l-.62-.65c-.18-.16-.38-.24-.61-.24s-.43.08-.59.25c-.17.16-.25.36-.25.6zm1.45-6.31c0 .24.09.43.26.59.17.18.38.27.62.27h2.02c.23 0 .43-.08.6-.25s.25-.37.25-.61-.08-.44-.25-.6-.37-.25-.6-.25h-2.02c-.24 0-.44.08-.62.25s-.26.37-.26.6z"/>
    </symbol>

    <symbol id="icon-6">
        <path fill="blue" d="M4.26 16.93c0 .66.12 1.28.38 1.88s.59 1.11 1.02 1.55c.43.43.94.79 1.53 1.05s1.21.42 1.87.45c.11 0 .17-.06.17-.17v-1.34c0-.11-.06-.17-.17-.17-.87-.06-1.6-.41-2.19-1.03a3.13 3.13 0 0 1-.89-2.22c0-.84.28-1.57.85-2.19.57-.62 1.26-.97 2.1-1.04l.53-.06c.13 0 .2-.06.2-.19l.06-.51c.11-1.09.56-1.99 1.37-2.71s1.76-1.08 2.86-1.08c1.09 0 2.05.36 2.85 1.07.81.72 1.27 1.61 1.38 2.69l.07.58c0 .12.06.18.19.18h1.6c.9 0 1.67.32 2.32.96s.97 1.4.97 2.29c0 .86-.3 1.6-.89 2.22-.59.62-1.33.97-2.19 1.03-.13 0-.2.06-.2.17v1.34c0 .11.07.17.2.17 1.34-.06 2.47-.57 3.39-1.51.92-.95 1.38-2.09 1.38-3.42 0-.72-.14-1.38-.42-1.99.78-.94 1.17-2.06 1.17-3.36 0-.94-.23-1.81-.7-2.62s-1.11-1.45-1.91-1.92-1.68-.71-2.62-.71c-1.56 0-2.85.58-3.88 1.73-.88-.43-1.78-.65-2.7-.65-1.41 0-2.66.44-3.75 1.32s-1.79 2-2.1 3.38c-1.1.26-2.01.83-2.73 1.73-.76.93-1.12 1.95-1.12 3.1zm5.49 6.68c0 .4.22.66.65.78.21.07.42.05.63-.06.21-.11.35-.28.41-.5l1.5-5.73a.78.78 0 0 0-.09-.63c-.12-.2-.3-.33-.54-.4-.22-.07-.43-.05-.63.07s-.33.29-.39.52l-1.5 5.7c-.03.11-.04.19-.04.25zm2.59 3.05c0 .12.03.24.08.37.1.21.27.35.51.43.02 0 .06 0 .1.01s.08.01.11.01h.09c.43 0 .68-.22.76-.66l2.3-8.74c.07-.22.05-.43-.06-.63a.835.835 0 0 0-.5-.4c-.24-.07-.47-.05-.68.07s-.33.29-.38.52l-2.31 8.75c-.01.1-.02.19-.02.27zm4.16-3.06c0 .16.05.31.16.47a.819.819 0 0 0 .68.35c.17 0 .33-.05.49-.14.16-.09.26-.24.32-.45l1.5-5.73c.08-.21.05-.41-.07-.62a.854.854 0 0 0-.52-.41.796.796 0 0 0-.66.07c-.2.12-.32.29-.36.52l-1.5 5.7c-.03.11-.04.19-.04.24zm1.53-14.52c.67-.67 1.49-1 2.48-1 .98 0 1.81.34 2.49 1.02.69.68 1.03 1.51 1.03 2.48 0 .63-.17 1.24-.52 1.85-.95-.95-2.11-1.43-3.49-1.43h-.31c-.28-1.17-.84-2.14-1.68-2.92z"/>
    </symbol>

    <symbol id="icon-7">
        <path fill="blue" d="M1.48 16.95c0 1.32.46 2.46 1.37 3.4.91.94 2.04 1.45 3.38 1.51.12 0 .18-.06.18-.17v-1.33c0-.12-.06-.18-.18-.18-.86-.04-1.58-.38-2.17-1s-.88-1.37-.88-2.24c0-.84.28-1.58.84-2.19.56-.62 1.26-.96 2.1-1.03l.53-.08c.11 0 .16-.05.16-.14l.08-.55c.12-1.09.59-2 1.38-2.72S10 9.16 11.1 9.16s2.05.36 2.86 1.08c.82.72 1.28 1.62 1.38 2.69l.07.58c.02.11.1.17.22.17h1.6c.89 0 1.65.32 2.29.96.64.64.96 1.41.96 2.31 0 .87-.29 1.61-.88 2.24s-1.31.95-2.17 1c-.13 0-.2.06-.2.18v1.33c0 .11.07.17.2.17 1.33-.04 2.45-.54 3.37-1.49.91-.95 1.37-2.09 1.37-3.42 0-.68-.13-1.34-.38-2.01.78-.96 1.16-2.08 1.16-3.35 0-.71-.14-1.38-.41-2.03-.27-.65-.65-1.2-1.12-1.67s-1.03-.84-1.67-1.12-1.33-.42-2.04-.42c-1.54 0-2.83.58-3.86 1.74-.89-.44-1.81-.66-2.74-.66-1.41 0-2.66.44-3.74 1.31s-1.77 2-2.08 3.38c-1.12.26-2.04.83-2.75 1.73s-1.06 1.93-1.06 3.09zm5.35 7.03c0 .17.05.34.16.51.11.17.27.28.47.35.23.07.45.06.64-.04.2-.09.33-.28.4-.56l.14-.61c.05-.23.02-.44-.1-.63a.875.875 0 0 0-.52-.4c-.23-.07-.44-.04-.64.08s-.32.29-.38.52l-.14.59c-.02.06-.03.12-.03.19zm.77-2.9c0 .22.08.41.24.57.16.18.35.26.56.26.24 0 .44-.08.6-.24.17-.16.25-.35.25-.59 0-.23-.08-.43-.25-.59a.847.847 0 0 0-.6-.24c-.23 0-.42.08-.58.23s-.22.37-.22.6zm.61-2.27c-.01.16.03.31.13.45.1.15.26.25.48.32a.8.8 0 0 0 .62-.07c.21-.11.35-.28.42-.51l.27-.9c.07-.24.05-.46-.07-.65a.913.913 0 0 0-.54-.39.737.737 0 0 0-.63.07.85.85 0 0 0-.41.5l-.24.92c-.02.16-.03.25-.03.26zm1.15 8.29c0 .17.05.33.16.49.11.16.27.27.49.33.09.02.17.03.24.03.43 0 .7-.2.8-.61l.13-.59c.06-.26.03-.48-.08-.68s-.29-.32-.52-.37a.744.744 0 0 0-.63.07c-.21.12-.34.29-.41.51l-.14.6c-.03.11-.04.19-.04.22zm.56-22.44c0 .24.08.44.24.6l.66.64c.14.16.32.24.54.26.22.02.43-.07.62-.26.16-.16.24-.36.24-.59 0-.24-.08-.44-.24-.6l-.63-.65a.869.869 0 0 0-.58-.26c-.23 0-.43.08-.6.25-.16.17-.25.37-.25.61zm.23 19.54c0 .23.08.42.24.58.16.16.36.24.58.24.24 0 .43-.08.59-.23.16-.16.23-.35.23-.59a.784.784 0 0 0-.82-.81c-.24 0-.43.08-.59.23s-.23.35-.23.58zm.62-2.27c-.01.15.03.31.14.47.1.16.25.26.45.3.23.06.44.04.64-.06s.33-.29.41-.56l.26-.9c.07-.22.05-.43-.07-.63a.867.867 0 0 0-.53-.4c-.22-.07-.43-.04-.64.08s-.34.3-.41.53l-.22.9c-.02.08-.03.17-.03.27zm2.76 2.15c0 .17.05.33.15.48.1.15.25.26.46.32.03 0 .08.01.14.02.06.01.11.02.14.02.41 0 .66-.22.76-.66l.14-.6c.07-.21.05-.42-.07-.63a.863.863 0 0 0-.51-.41c-.25-.06-.48-.04-.68.08s-.34.29-.41.53l-.09.59c0 .01 0 .05-.01.11-.01.07-.02.11-.02.15zm.74-2.96c0 .23.08.42.24.57.15.16.34.24.58.24s.43-.08.59-.23c.16-.16.23-.35.23-.58 0-.24-.08-.43-.23-.59-.16-.16-.35-.23-.59-.23s-.43.08-.59.23-.23.35-.23.59zm.61-2.31c0 .17.05.33.16.48.11.15.27.26.49.32.02 0 .06.01.12.02s.11.02.14.02c.11 0 .23-.03.37-.09.21-.11.34-.28.4-.52l.24-.9c.06-.23.04-.44-.07-.63s-.28-.33-.5-.4a.787.787 0 0 0-.64.06c-.2.11-.33.27-.4.51l-.28.91c0 .02 0 .05-.01.11a.36.36 0 0 0-.02.11zm.35-9.72c.66-.66 1.48-.99 2.47-.99.99 0 1.83.34 2.52 1.02s1.04 1.5 1.04 2.48c0 .66-.18 1.29-.53 1.88-.98-.98-2.15-1.47-3.5-1.47h-.31c-.28-1.1-.85-2.07-1.69-2.92zm1.65-5.26c0 .23.08.42.23.58.15.15.35.23.59.23s.45-.08.62-.23c.17-.15.25-.35.25-.58V1.76c0-.23-.09-.43-.26-.6a.838.838 0 0 0-.61-.25c-.23 0-.43.08-.58.25-.16.17-.23.37-.23.6v2.07zm5.52 2.26c0 .25.08.45.23.6.36.36.76.36 1.21 0l1.43-1.43c.17-.17.25-.38.25-.63 0-.24-.08-.44-.25-.6a.816.816 0 0 0-.6-.25c-.23 0-.43.08-.61.24L22.63 5.5a.79.79 0 0 0-.23.59zm.78 11.85c0 .23.09.43.27.59l.61.63c.2.16.4.24.61.24.2 0 .4-.08.6-.24.17-.16.25-.35.25-.59 0-.23-.08-.43-.25-.62l-.65-.61c-.15-.17-.34-.25-.57-.25s-.43.08-.6.25a.8.8 0 0 0-.27.6zm1.48-6.34c0 .24.09.43.26.59.18.18.39.27.62.27h2.03c.23 0 .43-.08.59-.25.16-.17.24-.37.24-.61s-.08-.44-.24-.6a.764.764 0 0 0-.59-.25h-2.03c-.24 0-.44.08-.62.25s-.26.37-.26.6z"/>
    </symbol>

    <symbol id="icon-8">
        <path fill="deepskyblue" d="M1.58 16.93c0 .86.21 1.67.64 2.41.42.74 1 1.34 1.74 1.79.73.45 1.54.69 2.4.71.11 0 .17-.06.17-.17v-1.33c0-.12-.06-.19-.17-.19-.85-.04-1.58-.38-2.18-1.02s-.9-1.37-.9-2.21c0-.82.28-1.54.85-2.16.57-.61 1.26-.97 2.1-1.07l.53-.06c.12 0 .18-.06.18-.19l.08-.51c.11-1.09.56-2 1.36-2.73s1.75-1.09 2.85-1.09c1.09 0 2.04.36 2.85 1.09.82.73 1.28 1.63 1.38 2.7l.07.58c0 .11.06.17.17.17h1.61c.9 0 1.67.32 2.31.96.64.64.96 1.4.96 2.29 0 .84-.3 1.57-.9 2.21-.6.63-1.33.97-2.17 1.02-.12 0-.19.06-.19.19v1.33c0 .11.06.17.19.17 1.33-.04 2.45-.54 3.38-1.5.93-.96 1.39-2.09 1.39-3.41 0-.76-.14-1.43-.43-2.03.75-.93 1.15-2.03 1.15-3.28 0-.94-.23-1.81-.7-2.61-.47-.8-1.11-1.44-1.91-1.91s-1.68-.7-2.62-.7c-1.54 0-2.83.58-3.87 1.73-.81-.44-1.71-.66-2.69-.66-1.41 0-2.65.44-3.74 1.31s-1.78 1.99-2.09 3.34c-1.12.28-2.03.86-2.74 1.75-.71.9-1.06 1.92-1.06 3.08zm6.34 4.05c0 .24.08.44.24.61.16.17.35.25.59.25.23 0 .43-.08.59-.25.16-.17.24-.37.24-.61 0-.23-.08-.42-.24-.58s-.35-.24-.59-.24c-.23 0-.43.08-.59.24s-.24.36-.24.58zm0 3.63c0 .21.08.4.24.57.18.16.37.24.58.24.24 0 .43-.08.59-.23.16-.16.23-.35.23-.58 0-.24-.08-.43-.24-.59a.784.784 0 0 0-.59-.23.84.84 0 0 0-.59.23c-.14.15-.22.35-.22.59zM9.97 4.68c0 .24.08.44.24.59l.66.66c.16.16.34.25.53.25.21.03.41-.04.61-.22s.3-.39.3-.63-.08-.46-.24-.64l-.64-.61a.73.73 0 0 0-.58-.25c-.25 0-.46.08-.63.25-.17.16-.25.36-.25.6zM11.1 22.9c0 .22.08.42.24.6.16.16.36.24.58.24.24 0 .44-.08.6-.24s.25-.36.25-.6c0-.23-.08-.43-.25-.6s-.37-.25-.6-.25c-.23 0-.42.08-.58.25s-.24.37-.24.6zm0-3.6c0 .23.08.42.24.58s.36.24.58.24c.24 0 .44-.08.6-.24.17-.16.25-.35.25-.59 0-.23-.08-.43-.25-.59s-.37-.24-.6-.24c-.23 0-.42.08-.58.24s-.24.37-.24.6zm0 7.26c0 .22.08.41.24.57.17.17.36.25.58.25.24 0 .44-.08.6-.23.17-.16.25-.35.25-.59s-.08-.44-.25-.6a.816.816 0 0 0-.6-.25c-.22 0-.41.08-.58.25-.16.17-.24.37-.24.6zm3.22-5.58c0 .24.08.44.24.61.16.17.36.25.59.25s.43-.08.59-.25c.16-.17.24-.37.24-.61 0-.23-.08-.42-.24-.58s-.35-.24-.59-.24-.43.08-.59.24-.24.36-.24.58zm0 3.63c0 .21.08.4.23.57.18.16.38.24.6.24.24 0 .43-.08.59-.23.16-.16.23-.35.23-.58 0-.24-.08-.43-.24-.59a.784.784 0 0 0-.59-.23c-.24 0-.44.08-.6.24-.14.15-.22.35-.22.58zm.98-15.55c.69-.66 1.51-.99 2.47-.99.97 0 1.8.35 2.48 1.04.69.69 1.03 1.53 1.03 2.49 0 .62-.17 1.24-.51 1.84-.95-.96-2.11-1.44-3.47-1.44h-.32c-.3-1.17-.86-2.15-1.68-2.94zm1.6-5.22c0 .23.08.43.25.58s.37.23.61.23.43-.08.59-.23c.16-.16.23-.35.23-.58V1.8c0-.24-.08-.44-.24-.61S18 .94 17.77.94s-.43.09-.6.26c-.17.17-.26.37-.26.6v2.04zm5.52 2.27c0 .23.08.43.25.59.15.16.34.24.56.26s.43-.07.62-.26l1.43-1.43c.18-.18.26-.38.26-.61 0-.24-.09-.44-.26-.61a.816.816 0 0 0-.6-.25c-.22 0-.41.08-.58.25l-1.43 1.46c-.17.16-.25.36-.25.6zm.8 11.8c0 .25.08.46.24.62l.64.63c.24.16.46.24.64.24.21 0 .39-.09.56-.26.17-.17.25-.38.25-.61 0-.23-.09-.42-.26-.58l-.62-.65c-.18-.16-.38-.24-.61-.24s-.43.08-.59.25c-.17.16-.25.36-.25.6zm1.45-6.31c0 .24.09.43.26.59.17.18.38.27.62.27h2.02c.23 0 .43-.08.6-.25s.25-.37.25-.61-.08-.44-.25-.6-.37-.25-.6-.25h-2.02c-.24 0-.44.08-.62.25s-.26.37-.26.6z"/>
    </symbol>

    <symbol id="icon-9">
        <path fill="deepskyblue" d="M4.25 16.92c0 .66.12 1.28.38 1.88.25.6.59 1.11 1.02 1.55.43.44.94.79 1.53 1.06s1.22.42 1.88.45c.12 0 .18-.06.18-.17v-1.34c0-.11-.06-.17-.18-.17-.85-.04-1.58-.39-2.18-1.03s-.9-1.39-.9-2.24.28-1.58.84-2.2 1.26-.96 2.1-1.03l.53-.07c.1 0 .15-.05.15-.15l.08-.53c.11-1.09.58-2 1.4-2.73s1.78-1.09 2.88-1.09c1.09 0 2.04.36 2.85 1.08.82.72 1.28 1.62 1.4 2.7l.07.57c0 .12.06.19.18.19h1.62c.89 0 1.65.32 2.29.96.64.64.96 1.41.96 2.31 0 .85-.3 1.6-.89 2.24s-1.32.98-2.17 1.03c-.13 0-.19.06-.19.17v1.34c0 .11.06.17.19.17 1.34-.06 2.47-.57 3.39-1.52.93-.95 1.39-2.09 1.39-3.42 0-.64-.14-1.31-.41-2 .76-.99 1.13-2.09 1.13-3.29 0-.94-.24-1.82-.71-2.63s-1.11-1.45-1.92-1.92c-.81-.47-1.68-.71-2.62-.71-1.53 0-2.82.56-3.86 1.67a6.03 6.03 0 0 0-2.7-.65c-1.42 0-2.68.44-3.77 1.32s-1.79 2.01-2.1 3.38c-1.13.26-2.05.84-2.76 1.72s-1.08 1.92-1.08 3.1zm5.39 6.75c0 .17.05.33.15.48.1.15.26.27.48.34.11.06.24.08.37.07.13-.01.27-.08.4-.2a.96.96 0 0 0 .28-.48l.28-1.01c.06-.25.04-.48-.08-.67a.762.762 0 0 0-.53-.37c-.21-.07-.42-.05-.63.07s-.34.28-.41.5l-.28 1.04c-.02.09-.03.17-.03.23zm1.31-4.77c.01.19.06.37.17.52s.27.25.48.28c.18.03.27.05.3.05.38 0 .63-.22.76-.66l.28-1c.06-.23.04-.45-.08-.66a.862.862 0 0 0-.53-.42c-.22-.06-.44-.04-.64.08s-.33.29-.4.52l-.3 1.05c-.02.12-.04.2-.04.24zm1.24 7.9c0 .18.05.34.15.5.1.16.26.27.48.33.14.03.23.05.28.05.09 0 .21-.03.38-.1.17-.08.3-.27.38-.55l.3-1.01c.06-.25.03-.48-.08-.68a.736.736 0 0 0-.52-.37.763.763 0 0 0-.64.07.88.88 0 0 0-.42.51l-.28 1.04c-.02.08-.03.15-.03.21zm1.33-4.8c0 .17.05.33.16.49.11.16.27.27.49.33.22.07.44.05.63-.05.2-.1.33-.29.41-.56l.28-1.01c.07-.25.05-.47-.07-.67a.78.78 0 0 0-.53-.36c-.22-.08-.43-.05-.64.06s-.34.29-.41.51l-.28 1.04c-.02.1-.04.17-.04.22zm2.85 1.75c-.01.16.03.31.14.46s.26.26.46.33l.25.03c.11.01.24-.02.38-.07.21-.08.35-.26.42-.54l.28-1.05c.07-.23.05-.45-.07-.64a.885.885 0 0 0-.51-.4c-.25-.06-.47-.03-.67.08s-.32.3-.36.53l-.29 1c-.02.17-.03.26-.03.27zm1.35-4.8c0 .17.05.34.16.5.11.16.27.26.48.3l.25.03c.43 0 .7-.21.81-.62l.28-1.03c.06-.25.03-.48-.08-.68s-.3-.32-.53-.37a.751.751 0 0 0-.64.07.82.82 0 0 0-.39.53l-.3 1.02c-.02.12-.04.2-.04.25zm.34-9.9c.67-.64 1.48-.97 2.45-.97.98 0 1.81.35 2.49 1.05.69.7 1.03 1.53 1.03 2.51 0 .64-.16 1.23-.48 1.77-.96-.96-2.12-1.44-3.49-1.44h-.32c-.24-1.1-.8-2.07-1.68-2.92z"/>
    </symbol>

    <symbol id="icon-10">
        <path fill="blue" d="M4.23 16.89c0 1.33.47 2.48 1.4 3.44s2.07 1.47 3.4 1.53c.12 0 .18-.06.18-.17v-1.34c0-.11-.06-.17-.18-.17a3.15 3.15 0 0 1-2.19-1.03c-.6-.64-.9-1.39-.9-2.26 0-.83.28-1.55.85-2.17.57-.61 1.27-.97 2.1-1.07l.53-.04c.13 0 .2-.06.2-.18l.07-.54c.11-1.08.56-1.99 1.37-2.72.81-.73 1.76-1.1 2.85-1.1s2.04.37 2.86 1.1c.82.73 1.28 1.64 1.4 2.72l.08.57c0 .12.06.19.17.19h1.62c.91 0 1.68.32 2.33.95.64.63.97 1.4.97 2.28 0 .86-.3 1.61-.91 2.25-.61.64-1.34.99-2.19 1.04-.12 0-.19.06-.19.17v1.34c0 .11.06.17.19.17 1.34-.04 2.47-.55 3.4-1.51.93-.97 1.39-2.12 1.39-3.45 0-.71-.14-1.38-.43-2.01.79-.96 1.18-2.07 1.18-3.32 0-.95-.24-1.83-.71-2.64S23.96 7.47 23.15 7s-1.68-.7-2.62-.7c-1.55 0-2.85.58-3.89 1.73-.81-.43-1.71-.65-2.71-.65-1.41 0-2.67.44-3.76 1.32s-1.8 2-2.11 3.36c-1.11.26-2.02.84-2.74 1.74-.73.91-1.09 1.94-1.09 3.09zm5.49 7.72c0 .21.08.4.24.57.18.16.37.24.58.24.24 0 .43-.08.59-.23.16-.16.23-.35.23-.58 0-.24-.08-.43-.24-.59a.784.784 0 0 0-.59-.23.84.84 0 0 0-.59.23c-.14.15-.22.35-.22.59zm.86-3.63c0 .24.08.44.24.61.16.17.35.25.59.25.23 0 .43-.08.59-.25.16-.17.24-.37.24-.61 0-.23-.08-.42-.24-.58a.791.791 0 0 0-.59-.24c-.23 0-.43.08-.59.24-.16.16-.24.36-.24.58zm1.89 5.58c0 .22.08.41.24.57.17.17.36.25.58.25.24 0 .44-.08.6-.23.17-.16.25-.35.25-.59s-.08-.44-.25-.6a.816.816 0 0 0-.6-.25c-.22 0-.41.08-.58.25-.15.17-.24.37-.24.6zm.86-3.66c0 .22.08.42.25.6.16.16.35.24.57.24.24 0 .44-.08.61-.24s.25-.36.25-.6c0-.23-.08-.43-.25-.6s-.37-.25-.61-.25c-.23 0-.42.08-.58.25s-.24.37-.24.6zm.43-3.6c0 .23.08.42.24.58s.36.24.58.24c.24 0 .44-.08.6-.24.17-.16.25-.35.25-.59 0-.23-.08-.43-.25-.59s-.37-.24-.6-.24c-.22 0-.42.08-.58.24s-.24.37-.24.6zm2.37 5.31c0 .21.08.4.23.57.17.16.38.24.6.24.24 0 .43-.08.59-.23.16-.16.23-.35.23-.58 0-.24-.08-.43-.23-.59a.784.784 0 0 0-.59-.23.8.8 0 0 0-.83.82zm.85-3.63c0 .24.08.44.24.61.16.17.36.25.59.25.23 0 .43-.08.59-.25.16-.17.24-.37.24-.61 0-.23-.08-.42-.24-.58a.791.791 0 0 0-.59-.24c-.23 0-.43.08-.59.24s-.24.36-.24.58zm1.05-11.96c.68-.68 1.5-1.01 2.48-1.01s1.81.35 2.5 1.04 1.03 1.53 1.03 2.52c0 .59-.17 1.2-.51 1.84-.96-.96-2.13-1.44-3.5-1.44h-.31a5.877 5.877 0 0 0-1.69-2.95z"/>
    </symbol>

    <symbol id="icon-11">
        <path fill="deepskyblue" d="M1.52 16.9c0 1.11.33 2.09.98 2.96s1.51 1.46 2.57 1.78l-.64 1.7c-.04.14 0 .21.14.21H6.7L5.45 27.5h.29l4.17-5.39c.04-.04.04-.09.01-.14-.02-.05-.07-.07-.14-.07H7.61l2.47-4.63c.07-.14.02-.22-.14-.22H7c-.09 0-.17.05-.23.14L5.7 20.07c-.71-.18-1.3-.57-1.77-1.16s-.7-1.26-.7-2.01c0-.83.28-1.55.85-2.17s1.27-.97 2.1-1.07l.52-.06c.13 0 .2-.06.2-.18l.06-.51c.11-1.08.57-1.99 1.38-2.72a4.15 4.15 0 0 1 2.86-1.1c1.09 0 2.04.37 2.85 1.1s1.28 1.64 1.4 2.72l.06.58c0 .11.06.17.18.17h1.61c.91 0 1.68.32 2.32.95.64.63.96 1.39.96 2.29 0 .85-.3 1.59-.89 2.21-.59.62-1.32.97-2.19 1.04-.13 0-.2.06-.2.18v1.37c0 .11.07.17.2.17 1.33-.04 2.46-.55 3.39-1.51.93-.96 1.39-2.11 1.39-3.45 0-.74-.14-1.41-.43-2.01.79-.96 1.18-2.06 1.18-3.32 0-.94-.24-1.81-.71-2.62a5.201 5.201 0 0 0-1.92-1.92c-.81-.47-1.68-.71-2.62-.71-1.54 0-2.84.58-3.88 1.73-.81-.43-1.71-.65-2.7-.65-1.41 0-2.67.44-3.76 1.31s-1.79 1.99-2.1 3.36c-1.11.26-2.02.83-2.73 1.73s-1.09 1.94-1.09 3.09zm8.09 9.58c-.01.15.03.3.14.44s.26.25.46.33c.07.02.14.03.21.03.17 0 .34-.05.51-.15s.28-.26.34-.47l2.29-8.57a.83.83 0 0 0-.07-.64.815.815 0 0 0-.49-.4.777.777 0 0 0-.65.07c-.2.11-.34.28-.4.51l-2.31 8.6c-.02.07-.03.16-.03.25zm.33-21.85c0 .24.08.43.25.59l.64.66c.17.17.37.25.61.26.24 0 .43-.08.57-.26.19-.15.28-.35.28-.6 0-.24-.08-.43-.25-.59l-.63-.66a.87.87 0 0 0-.61-.24c-.25 0-.46.08-.62.24-.16.16-.24.36-.24.6zm3.83 18.8c0 .12.04.24.11.38.13.2.29.34.5.43.07.03.17.05.3.05.15 0 .26-.02.33-.06.2-.08.34-.28.41-.58l1.49-5.55c.06-.24.04-.45-.07-.65a.848.848 0 0 0-.51-.39.751.751 0 0 0-.64.07.78.78 0 0 0-.39.51l-1.5 5.56c0 .02-.01.06-.02.11-.01.06-.01.09-.01.12zM15.3 9.04c.67-.64 1.49-.97 2.48-.97.97 0 1.81.34 2.5 1.02.69.68 1.04 1.51 1.04 2.48 0 .62-.17 1.24-.52 1.85-.99-.98-2.16-1.47-3.5-1.47h-.31c-.31-1.17-.88-2.14-1.69-2.91zm1.61-5.25c0 .23.09.43.26.6s.37.26.6.26c.24 0 .43-.08.59-.25.16-.17.23-.37.23-.61V1.73c0-.24-.08-.44-.23-.61s-.35-.25-.59-.25c-.23 0-.43.08-.6.25s-.26.37-.26.61v2.06zm5.53 2.28c0 .24.09.44.26.6.14.17.33.25.57.25s.44-.08.6-.25l1.44-1.45c.17-.16.26-.35.26-.59s-.08-.44-.25-.61a.822.822 0 0 0-.61-.25c-.22 0-.41.09-.57.26L22.7 5.47c-.17.16-.26.36-.26.6zm.81 11.86c0 .22.08.42.24.6l.66.63c.12.14.31.23.54.24l.01.01h.1c.19 0 .36-.09.53-.26.17-.16.26-.36.26-.6 0-.23-.09-.43-.26-.61l-.65-.61a.759.759 0 0 0-.58-.27c-.23 0-.43.08-.6.25-.17.18-.25.39-.25.62zm1.45-6.35c0 .23.09.43.27.6.18.18.38.27.61.27h2.03c.23 0 .43-.09.6-.26s.26-.38.26-.61c0-.23-.08-.43-.25-.59a.853.853 0 0 0-.61-.24h-2.03c-.25 0-.46.08-.63.24-.17.16-.25.36-.25.59z"/>
    </symbol>

    <symbol id="icon-12">
        <path fill="blue" d="M1.48 16.88c0 1.34.47 2.49 1.4 3.45s2.07 1.47 3.4 1.53c.12 0 .18-.06.18-.17v-1.34c0-.12-.06-.18-.18-.18-.86-.04-1.59-.39-2.19-1.03s-.9-1.4-.9-2.26c0-.83.28-1.55.85-2.17s1.27-.97 2.1-1.07l.53-.04c.13 0 .2-.06.2-.18l.07-.55c.11-1.08.56-1.99 1.37-2.71.81-.73 1.76-1.09 2.86-1.09 1.09 0 2.04.36 2.86 1.09.82.73 1.29 1.63 1.4 2.71l.07.58c0 .12.06.19.17.19h1.62c.89 0 1.67.32 2.32.96.65.64.98 1.4.98 2.27 0 .87-.3 1.62-.91 2.26-.61.64-1.34.98-2.19 1.03-.13 0-.2.06-.2.18v1.34c0 .11.07.17.2.17 1.34-.04 2.47-.55 3.39-1.51.93-.97 1.39-2.12 1.39-3.46 0-.74-.14-1.41-.41-2.01.79-.96 1.18-2.07 1.18-3.33 0-.94-.24-1.82-.71-2.63a5.409 5.409 0 0 0-1.93-1.93c-.81-.47-1.69-.71-2.63-.71-1.56 0-2.86.58-3.9 1.75-.8-.44-1.7-.66-2.71-.66-1.41 0-2.67.44-3.76 1.31s-1.8 2-2.11 3.37c-1.11.26-2.02.84-2.74 1.74-.71.92-1.07 1.95-1.07 3.1zm5.34 7.06c.1.22.25.37.46.45.2.1.41.11.63.02.22-.08.37-.23.45-.45.1-.22.11-.43.02-.65a.728.728 0 0 0-.45-.44.679.679 0 0 0-.62-.03c-.22.09-.37.24-.47.47-.1.18-.11.39-.02.63zm.64-2.84c0 .14.03.27.09.38.19.31.49.46.89.46.32 0 .55-.22.69-.65l1.04-3.22c.08-.24.06-.47-.07-.67s-.31-.33-.55-.37a.892.892 0 0 0-.62.07.85.85 0 0 0-.41.5l-1.03 3.22c-.02.1-.03.2-.03.28zm1.87 5.62c0 .13.02.23.05.29.09.22.24.37.45.45.09.05.21.07.35.07.06 0 .16-.02.3-.06.22-.08.38-.23.47-.45s.1-.44 0-.66c-.1-.22-.25-.37-.45-.45s-.41-.08-.62 0c-.19.07-.33.19-.42.35a.95.95 0 0 0-.13.46zm.61-22.15c0 .25.08.45.24.6l.65.65c.16.16.34.25.54.27.21.03.41-.05.61-.23s.3-.4.3-.64-.08-.44-.24-.6l-.64-.64a.895.895 0 0 0-.62-.25c-.24 0-.45.08-.61.24-.15.17-.23.37-.23.6zm.12 19.46c0 .16.05.32.16.48s.27.27.48.33c.11.02.19.04.24.04.15 0 .28-.03.38-.08.2-.08.34-.27.43-.57l1.8-6.14a.81.81 0 0 0-.06-.65.762.762 0 0 0-.5-.39.834.834 0 0 0-.66.06c-.2.11-.34.27-.41.51l-1.84 6.19c-.01.11-.02.19-.02.22zm3.45-.39c0 .13.02.23.07.31.09.21.24.35.45.44.11.05.22.08.35.08.06 0 .16-.02.3-.06.23-.09.38-.23.46-.44.08-.22.08-.43 0-.63a.839.839 0 0 0-.42-.45.767.767 0 0 0-.66-.03c-.21.09-.37.24-.48.47a.57.57 0 0 0-.07.31zm.72-2.56c0 .16.05.31.15.45.1.15.26.25.46.31.09.02.17.03.25.03.39 0 .65-.2.79-.61l1.03-3.18c.08-.23.05-.45-.07-.65s-.29-.33-.52-.39c-.24-.07-.45-.05-.64.06s-.32.27-.4.51l-1.02 3.2c-.01.13-.03.22-.03.27zM15.3 9c.67-.64 1.5-.97 2.48-.97s1.81.34 2.5 1.03c.69.68 1.04 1.51 1.04 2.49 0 .62-.17 1.24-.52 1.85-.96-.96-2.12-1.44-3.51-1.44H17c-.3-1.16-.86-2.15-1.7-2.96zm1.62-5.27c0 .24.08.44.25.61.17.17.37.25.61.25.23 0 .43-.08.59-.25.16-.17.24-.37.24-.61V1.67c0-.24-.08-.44-.24-.61a.764.764 0 0 0-.59-.25c-.24 0-.44.08-.61.25-.17.17-.25.37-.25.61v2.06zm5.55 2.29c0 .24.08.44.25.6.15.17.34.26.58.26.23 0 .44-.09.6-.26l1.44-1.44c.18-.15.27-.35.27-.6 0-.24-.09-.44-.26-.61a.838.838 0 0 0-.61-.25c-.22 0-.41.09-.57.27l-1.45 1.43c-.16.15-.25.36-.25.6zm.81 11.9c0 .23.08.43.24.6l.66.63c.14.18.34.27.6.27.24 0 .43-.09.57-.27a.77.77 0 0 0 .27-.6c0-.24-.09-.44-.27-.61l-.65-.62c-.16-.18-.35-.26-.58-.26s-.43.08-.6.25a.87.87 0 0 0-.24.61zm1.46-6.37c0 .24.09.44.26.6.18.18.38.26.62.26h2.03c.24 0 .44-.08.61-.25.17-.17.26-.37.26-.61 0-.23-.08-.43-.25-.59a.877.877 0 0 0-.62-.24h-2.03c-.25 0-.46.08-.63.24-.16.16-.25.36-.25.59z"/>
    </symbol>

    <symbol id="icon-13">
        <path fill="blue" d="M4.37 14.62c0-.24.08-.45.25-.62.17-.16.38-.24.6-.24h2.04c.23 0 .42.08.58.25.15.17.23.37.23.61s-.07.44-.22.61c-.15.17-.35.25-.58.25H5.23c-.23 0-.43-.08-.6-.25a.832.832 0 0 1-.26-.61zm2.86 6.93c0-.23.08-.43.23-.61l1.47-1.43c.15-.16.35-.23.59-.23s.44.08.6.23.24.34.24.57c0 .24-.08.46-.24.64L8.7 22.14c-.41.32-.82.32-1.23 0a.807.807 0 0 1-.24-.59zm0-13.84c0-.23.08-.43.23-.61.2-.17.41-.25.64-.25.22 0 .42.08.59.24l1.43 1.47c.16.15.24.35.24.59s-.08.44-.24.6-.36.24-.6.24-.44-.08-.59-.24L7.47 8.32a.837.837 0 0 1-.24-.61zm2.55 6.91c0-.93.23-1.8.7-2.6s1.1-1.44 1.91-1.91 1.67-.7 2.6-.7c.7 0 1.37.14 2.02.42.64.28 1.2.65 1.66 1.12.47.47.84 1.02 1.11 1.66.27.64.41 1.32.41 2.02 0 .94-.23 1.81-.7 2.61-.47.8-1.1 1.43-1.9 1.9-.8.47-1.67.7-2.61.7s-1.81-.23-2.61-.7c-.8-.47-1.43-1.1-1.9-1.9-.45-.81-.69-1.68-.69-2.62zm1.7 0c0 .98.34 1.81 1.03 2.5.68.69 1.51 1.04 2.49 1.04s1.81-.35 2.5-1.04 1.04-1.52 1.04-2.5c0-.96-.35-1.78-1.04-2.47-.69-.68-1.52-1.02-2.5-1.02-.97 0-1.8.34-2.48 1.02-.7.69-1.04 1.51-1.04 2.47zm2.66 7.78c0-.24.08-.44.25-.6s.37-.24.6-.24c.24 0 .45.08.61.24s.24.36.24.6v1.99c0 .24-.08.45-.25.62-.17.17-.37.25-.6.25s-.44-.08-.6-.25a.845.845 0 0 1-.25-.62V22.4zm0-15.5V4.86c0-.23.08-.43.25-.6.17-.17.37-.26.61-.26s.43.08.6.25c.17.17.25.37.25.6V6.9c0 .23-.08.42-.25.58s-.37.23-.6.23-.44-.08-.6-.23-.26-.35-.26-.58zm5.52 13.18c0-.23.08-.42.23-.56.15-.16.34-.23.56-.23.24 0 .44.08.6.23l1.46 1.43c.16.17.24.38.24.61 0 .23-.08.43-.24.59-.4.31-.8.31-1.2 0l-1.42-1.42a.974.974 0 0 1-.23-.65zm0-10.92c0-.25.08-.45.23-.59l1.42-1.47a.84.84 0 0 1 .59-.24c.24 0 .44.08.6.25.17.17.25.37.25.6 0 .25-.08.46-.24.62l-1.46 1.43c-.18.16-.38.24-.6.24-.23 0-.41-.08-.56-.24s-.23-.36-.23-.6zm2.26 5.46c0-.24.08-.44.24-.62.16-.16.35-.24.57-.24h2.02c.23 0 .43.09.6.26.17.17.26.37.26.6s-.09.43-.26.6c-.17.17-.37.25-.6.25h-2.02c-.23 0-.43-.08-.58-.25s-.23-.36-.23-.6z"/>
    </symbol>
</svg>