<svg xmlns="http://www.w3.org/2000/svg" viewBox="0 0 83.95 122.88" style="enable-background:new 0 0 83.95 122.88" xml:space="preserve"><path fill='salmon' d="M44.82 2.28c5.08 21.69 12.03 30.25 19.61 39.58 4.9 6.04 10.06 12.39 15.19 22.47 1.31 2.58 2.39 5.25 3.14 8.06.76 2.84 1.19 5.79 1.19 8.87 0 5.68-1.04 10.99-3.11 15.92-2.07 4.91-5.16 9.4-9.27 13.46-4.12 4.05-8.65 7.11-13.6 9.16-4.96 2.05-10.3 3.08-16.01 3.08-5.71 0-11.04-1.03-15.99-3.08-4.93-2.04-9.45-5.1-13.57-9.16-4.11-4.06-7.21-8.55-9.28-13.46C1.04 92.25 0 86.94 0 81.26c0-2.91.38-5.7 1.06-8.39.67-2.64 1.64-5.18 2.84-7.66 5.02-10.38 10.29-16.84 15.36-23.07C26.87 32.8 34.05 24 39.05 2.29A2.957 2.957 0 0 1 42.59.07c1.15.27 1.98 1.15 2.23 2.21zm-24.3 68.63c2.1-.19 3.95 1.36 4.13 3.45.48 5.06 1.59 9.72 3.7 13.74 2.04 3.88 5.08 7.23 9.48 9.8a3.814 3.814 0 0 1 1.36 5.21c-1.06 1.81-3.4 2.42-5.2 1.36-5.73-3.35-9.69-7.71-12.38-12.82-2.7-5.14-3.99-10.86-4.54-16.6a3.825 3.825 0 0 1 3.45-4.14zm39.33-25.32c-6.68-8.23-12.9-15.88-17.9-31.44-5.02 15.66-11.4 23.5-18.1 31.72-4.86 5.96-9.9 12.14-14.62 21.91-1.02 2.1-1.85 4.28-2.42 6.55-.56 2.22-.88 4.52-.88 6.93 0 4.92.88 9.46 2.63 13.63 1.76 4.18 4.43 8.03 7.98 11.54 3.57 3.52 7.47 6.16 11.7 7.91 4.21 1.74 8.78 2.62 13.72 2.62 4.96 0 9.55-.88 13.77-2.62 4.22-1.75 8.13-4.39 11.7-7.91 3.55-3.51 6.21-7.36 7.97-11.54 1.75-4.16 2.63-8.7 2.63-13.63 0-2.57-.35-5-.98-7.34-.64-2.37-1.56-4.66-2.7-6.9-4.88-9.58-9.81-15.65-14.5-21.43z"/></svg>