<svg xmlns="http://www.w3.org/2000/svg" viewBox="0 0 463 463" style="enable-background:new 0 0 463 463" xml:space="preserve"><path fill="salmon" d="M231.5 0C200.897 0 176 21.232 176 47.33V359.5c0 18.937 13.115 35.303 32 42.864V439.5c0 12.958 10.542 23.5 23.5 23.5s23.5-10.542 23.5-23.5v-37.136c18.885-7.56 32-23.927 32-42.864V47.33C287 21.232 262.103 0 231.5 0zm8.5 439.5c0 4.687-3.813 8.5-8.5 8.5s-8.5-3.813-8.5-8.5v-33.226c2.772.365 5.61.555 8.5.555s5.728-.19 8.5-.555V439.5zm-1-48.235V55.5c0-4.142-3.357-7.5-7.5-7.5s-7.5 3.358-7.5 7.5v335.765c-18.76-2.817-33-15.984-33-31.765V47.33C191 29.503 209.168 15 231.5 15S272 29.503 272 47.33v8.696c-.166-.011-.331-.025-.5-.025h-16c-4.143 0-7.5 3.358-7.5 7.5s3.357 7.5 7.5 7.5h16c.169 0 .334-.014.5-.025v17.05c-.167-.011-.333-.025-.5-.025-1.97 0-3.91.8-5.3 2.2a7.528 7.528 0 0 0-2.2 5.3 7.508 7.508 0 0 0 7.5 7.5c.167 0 .334-.014.5-.025v17.05c-.167-.011-.333-.025-.5-.025-1.97 0-3.91.8-5.3 2.2a7.528 7.528 0 0 0-2.2 5.3 7.508 7.508 0 0 0 7.5 7.5c.167 0 .334-.014.5-.025v17.05c-.166-.011-.331-.025-.5-.025h-16c-4.143 0-7.5 3.358-7.5 7.5s3.357 7.5 7.5 7.5h16c.169 0 .334-.014.5-.025v17.05c-.167-.011-.333-.025-.5-.025-1.97 0-3.91.8-5.3 2.2a7.528 7.528 0 0 0-2.2 5.3 7.508 7.508 0 0 0 7.5 7.5c.167 0 .333-.014.5-.025v17.05c-.167-.011-.333-.025-.5-.025-1.97 0-3.91.8-5.3 2.2a7.528 7.528 0 0 0-2.2 5.3 7.508 7.508 0 0 0 7.5 7.5c.167 0 .333-.014.5-.025v17.05c-.166-.011-.331-.025-.5-.025h-16c-4.143 0-7.5 3.358-7.5 7.5s3.357 7.5 7.5 7.5h16c.169 0 .334-.014.5-.025v17.05c-.166-.011-.333-.025-.5-.025a7.51 7.51 0 0 0-7.5 7.5 7.508 7.508 0 0 0 7.5 7.5c.167 0 .333-.014.5-.025v17.05c-.166-.011-.333-.025-.5-.025a7.51 7.51 0 0 0-7.5 7.5 7.508 7.508 0 0 0 7.5 7.5c.167 0 .333-.014.5-.025v17.05c-.166-.011-.331-.025-.5-.025h-16c-4.143 0-7.5 3.358-7.5 7.5s3.357 7.5 7.5 7.5h16c.169 0 .334-.014.5-.025v.525c0 15.78-14.24 28.947-33 31.764z"/></svg>