<svg class="svg-icon" style="width:1em;height:1em;vertical-align:middle;fill:currentColor;overflow:hidden" viewBox="0 0 1024 1024" xmlns="http://www.w3.org/2000/svg"><path fill='salmon' d="M149.333 384a42.667 42.667 0 1 0-42.666-42.667A42.667 42.667 0 0 0 149.333 384zM320 384h298.667a128 128 0 0 0 0-256 130.56 130.56 0 0 0-64 17.067 42.667 42.667 0 0 0-15.787 58.453 42.667 42.667 0 0 0 58.453 15.36 46.507 46.507 0 0 1 21.334-5.547 42.667 42.667 0 0 1 0 85.334H320A42.667 42.667 0 0 0 320 384zM149.333 554.667H448a42.667 42.667 0 0 0 0-85.334H149.333a42.667 42.667 0 0 0 0 85.334zM874.667 384A42.667 42.667 0 1 0 832 341.333 42.667 42.667 0 0 0 874.667 384zm-85.334 85.333H618.667a42.667 42.667 0 0 0 0 85.334h170.666a42.667 42.667 0 0 1 0 85.333 42.667 42.667 0 0 0 0 85.333 128 128 0 0 0 0-256zM533.333 640H362.667a42.667 42.667 0 0 0 0 85.333h170.666a42.667 42.667 0 0 1 0 85.334A46.507 46.507 0 0 1 512 805.12a42.667 42.667 0 1 0-42.667 73.813 130.56 130.56 0 0 0 64 17.067 128 128 0 0 0 0-256zM192 640h-42.667a42.667 42.667 0 0 0 0 85.333H192A42.667 42.667 0 0 0 192 640z"/></svg>